<?xml version="1.0" encoding="UTF-8" standalone="no"?>
<!DOCTYPE svg PUBLIC "-//W3C//DTD SVG 1.1//EN"
 "http://www.w3.org/Graphics/SVG/1.1/DTD/svg11.dtd">
<!-- Generated by graphviz version 2.43.0 (0)
 -->
<!-- Title: Notificaciones Pages: 1 -->
<svg width="1417pt" height="1218pt"
 viewBox="0.00 0.00 1417.00 1218.00" xmlns="http://www.w3.org/2000/svg" xmlns:xlink="http://www.w3.org/1999/xlink">
<g id="graph0" class="graph" transform="scale(1 1) rotate(0) translate(4 1214)">
<title>Notificaciones</title>
<polygon fill="white" stroke="transparent" points="-4,4 -4,-1214 1413,-1214 1413,4 -4,4"/>
<text text-anchor="middle" x="704.5" y="-1193.2" font-family="Helvetica,sans-Serif" font-weight="bold" font-size="16.00">Sistema de Notificaciones — Universidad</text>
<text text-anchor="middle" x="704.5" y="-1175.2" font-family="Helvetica,sans-Serif" font-weight="bold" font-size="16.00">(POO: Herencia + Polimorfismo · Abierto a extensión)</text>
<g id="clust1" class="cluster">
<title>cluster_rest</title>
<path fill="none" stroke="#2c3e50" stroke-dasharray="5,2" d="M1081,-8C1081,-8 1389,-8 1389,-8 1395,-8 1401,-14 1401,-20 1401,-20 1401,-627 1401,-627 1401,-633 1395,-639 1389,-639 1389,-639 1081,-639 1081,-639 1075,-639 1069,-633 1069,-627 1069,-627 1069,-20 1069,-20 1069,-14 1075,-8 1081,-8"/>
<text text-anchor="middle" x="1235" y="-17.2" font-family="Helvetica,sans-Serif" font-weight="bold" font-size="16.00">API REST (Spring Boot)</text>
</g>
<!-- Notificacion -->
<g id="node1" class="node">
<title>Notificacion</title>
<polygon fill="white" stroke="transparent" points="699.5,-724 699.5,-969 1046.5,-969 1046.5,-724 699.5,-724"/>
<polygon fill="#34495e" stroke="transparent" points="700,-926.5 700,-968.5 1047,-968.5 1047,-926.5 700,-926.5"/>
<polygon fill="none" stroke="black" points="700,-926.5 700,-968.5 1047,-968.5 1047,-926.5 700,-926.5"/>
<text text-anchor="start" x="831" y="-951.3" font-family="Helvetica,sans-Serif" font-weight="bold" font-size="14.00" fill="white">«abstract»</text>
<text text-anchor="start" x="826.5" y="-937.3" font-family="Helvetica,sans-Serif" font-weight="bold" font-size="14.00" fill="white">Notificacion</text>
<polygon fill="none" stroke="black" points="700,-807.5 700,-926.5 1047,-926.5 1047,-807.5 700,-807.5"/>
<text text-anchor="start" x="707" y="-908.3" font-family="Helvetica,sans-Serif" font-size="14.00"> &#160;&#160;&#160;&#160;&#160;&#160;&#160;&#160;&#160;&#160;&#160;&#160;&#160;&#160;&#160;&#45; id : Long</text>
<text text-anchor="start" x="707" y="-893.3" font-family="Helvetica,sans-Serif" font-size="14.00"> &#160;&#160;&#160;&#160;&#160;&#160;&#160;&#160;&#160;&#160;&#160;&#160;&#160;&#160;&#160;&#45; codigo : String</text>
<text text-anchor="start" x="707" y="-878.3" font-family="Helvetica,sans-Serif" font-size="14.00"> &#160;&#160;&#160;&#160;&#160;&#160;&#160;&#160;&#160;&#160;&#160;&#160;&#160;&#160;&#160;&#45; destinatario : String</text>
<text text-anchor="start" x="707" y="-863.3" font-family="Helvetica,sans-Serif" font-size="14.00"> &#160;&#160;&#160;&#160;&#160;&#160;&#160;&#160;&#160;&#160;&#160;&#160;&#160;&#160;&#160;&#45; mensaje : String</text>
<text text-anchor="start" x="707" y="-848.3" font-family="Helvetica,sans-Serif" font-size="14.00"> &#160;&#160;&#160;&#160;&#160;&#160;&#160;&#160;&#160;&#160;&#160;&#160;&#160;&#160;&#160;&#45; fechaEnvio : LocalDateTime</text>
<text text-anchor="start" x="707" y="-833.3" font-family="Helvetica,sans-Serif" font-size="14.00"> &#160;&#160;&#160;&#160;&#160;&#160;&#160;&#160;&#160;&#160;&#160;&#160;&#160;&#160;&#160;&#45; estado : EstadoNotificacion</text>
<text text-anchor="start" x="707" y="-818.3" font-family="Helvetica,sans-Serif" font-size="14.00"> &#160;&#160;&#160;&#160;&#160;&#160;&#160;&#160;&#160;&#160;&#160;&#160;&#160;&#160;&#160;&#45; tipoSituacion : TipoSituacion &#160;&#160;&#160;&#160;&#160;&#160;&#160;&#160;&#160;&#160;&#160;</text>
<polygon fill="none" stroke="black" points="700,-723.5 700,-807.5 1047,-807.5 1047,-723.5 700,-723.5"/>
<text text-anchor="start" x="707" y="-790.3" font-family="Helvetica,sans-Serif" font-size="14.00"> &#160;&#160;&#160;&#160;&#160;&#160;&#160;&#160;&#160;&#160;&#160;&#160;&#160;&#160;&#160;+ getters / setters</text>
<text text-anchor="start" x="707" y="-776.3" font-family="Helvetica,sans-Serif" font-size="14.00"> &#160;&#160;&#160;&#160;&#160;&#160;&#160;&#160;&#160;&#160;&#160;&#160;&#160;&#160;&#160;+ marcarEnviada() : void</text>
<text text-anchor="start" x="707" y="-762.3" font-family="Helvetica,sans-Serif" font-size="14.00"> &#160;&#160;&#160;&#160;&#160;&#160;&#160;&#160;&#160;&#160;&#160;&#160;&#160;&#160;&#160;+ marcarFallida() : void</text>
<text text-anchor="start" x="707" y="-748.3" font-family="Helvetica,sans-Serif" font-size="14.00"> &#160;&#160;&#160;&#160;&#160;&#160;&#160;&#160;&#160;&#160;&#160;&#160;&#160;&#160;&#160;</text>
<text text-anchor="start" x="780" y="-748.3" font-family="Helvetica,sans-Serif" font-style="italic" font-size="14.00">+ enviar() : ResultadoEnvio</text>
<text text-anchor="start" x="707" y="-734.3" font-family="Helvetica,sans-Serif" font-size="14.00"> &#160;&#160;&#160;&#160;&#160;&#160;&#160;&#160;&#160;&#160;&#160;&#160;&#160;&#160;&#160;</text>
<text text-anchor="start" x="780" y="-734.3" font-family="Helvetica,sans-Serif" font-style="italic" font-size="14.00">+ getMedio() : String</text>
<text text-anchor="start" x="927" y="-734.3" font-family="Helvetica,sans-Serif" font-size="14.00"> &#160;&#160;&#160;&#160;&#160;&#160;&#160;&#160;&#160;&#160;&#160;</text>
</g>
<!-- EstadoNotificacion -->
<g id="node5" class="node">
<title>EstadoNotificacion</title>
<polygon fill="white" stroke="transparent" points="609,-1054 609,-1162 787,-1162 787,-1054 609,-1054"/>
<polygon fill="#7f8c8d" stroke="transparent" points="609,-1124 609,-1162 787,-1162 787,-1124 609,-1124"/>
<polygon fill="none" stroke="black" points="609,-1124 609,-1162 787,-1162 787,-1124 609,-1124"/>
<text text-anchor="start" x="667" y="-1146.8" font-family="Helvetica,sans-Serif" font-weight="bold" font-size="14.00" fill="white">«enum»</text>
<text text-anchor="start" x="624" y="-1132.8" font-family="Helvetica,sans-Serif" font-weight="bold" font-size="14.00" fill="white">EstadoNotificacion</text>
<polygon fill="none" stroke="black" points="609,-1054 609,-1124 787,-1124 787,-1054 609,-1054"/>
<text text-anchor="start" x="614" y="-1107.8" font-family="Helvetica,sans-Serif" font-size="14.00"> &#160;&#160;&#160;&#160;&#160;&#160;&#160;&#160;&#160;&#160;&#160;&#160;&#160;&#160;&#160;PENDIENTE</text>
<text text-anchor="start" x="614" y="-1092.8" font-family="Helvetica,sans-Serif" font-size="14.00"> &#160;&#160;&#160;&#160;&#160;&#160;&#160;&#160;&#160;&#160;&#160;&#160;&#160;&#160;&#160;ENVIADA</text>
<text text-anchor="start" x="614" y="-1077.8" font-family="Helvetica,sans-Serif" font-size="14.00"> &#160;&#160;&#160;&#160;&#160;&#160;&#160;&#160;&#160;&#160;&#160;&#160;&#160;&#160;&#160;FALLIDA</text>
<text text-anchor="start" x="614" y="-1062.8" font-family="Helvetica,sans-Serif" font-size="14.00"> &#160;&#160;&#160;&#160;&#160;&#160;&#160;&#160;&#160;&#160;&#160;&#160;&#160;&#160;&#160;LEIDA &#160;&#160;&#160;&#160;&#160;&#160;&#160;&#160;&#160;&#160;&#160;</text>
</g>
<!-- Notificacion&#45;&gt;EstadoNotificacion -->
<g id="edge4" class="edge">
<title>Notificacion&#45;&gt;EstadoNotificacion</title>
<path fill="none" stroke="#2c3e50" stroke-dasharray="5,2" d="M743.25,-973.04C743.25,-999.89 743.25,-1026.99 743.25,-1049.78"/>
<text text-anchor="middle" x="715" y="-1009" font-family="Helvetica,sans-Serif" font-size="10.00">estado</text>
</g>
<!-- TipoSituacion -->
<g id="node6" class="node">
<title>TipoSituacion</title>
<polygon fill="white" stroke="transparent" points="846,-1054 846,-1162 1250,-1162 1250,-1054 846,-1054"/>
<polygon fill="#7f8c8d" stroke="transparent" points="846,-1124 846,-1162 1250,-1162 1250,-1124 846,-1124"/>
<polygon fill="none" stroke="black" points="846,-1124 846,-1162 1250,-1162 1250,-1124 846,-1124"/>
<text text-anchor="start" x="1017" y="-1146.8" font-family="Helvetica,sans-Serif" font-weight="bold" font-size="14.00" fill="white">«enum»</text>
<text text-anchor="start" x="994.5" y="-1132.8" font-family="Helvetica,sans-Serif" font-weight="bold" font-size="14.00" fill="white">TipoSituacion</text>
<polygon fill="none" stroke="black" points="846,-1054 846,-1124 1250,-1124 1250,-1054 846,-1054"/>
<text text-anchor="start" x="851" y="-1107.8" font-family="Helvetica,sans-Serif" font-size="14.00"> &#160;&#160;&#160;&#160;&#160;&#160;&#160;&#160;&#160;&#160;&#160;&#160;&#160;&#160;&#160;PUBLICACION_CALIFICACIONES</text>
<text text-anchor="start" x="851" y="-1092.8" font-family="Helvetica,sans-Serif" font-size="14.00"> &#160;&#160;&#160;&#160;&#160;&#160;&#160;&#160;&#160;&#160;&#160;&#160;&#160;&#160;&#160;RECORDATORIO_PAGO_MATRICULA</text>
<text text-anchor="start" x="851" y="-1077.8" font-family="Helvetica,sans-Serif" font-size="14.00"> &#160;&#160;&#160;&#160;&#160;&#160;&#160;&#160;&#160;&#160;&#160;&#160;&#160;&#160;&#160;CANCELACION_CLASE</text>
<text text-anchor="start" x="851" y="-1062.8" font-family="Helvetica,sans-Serif" font-size="14.00"> &#160;&#160;&#160;&#160;&#160;&#160;&#160;&#160;&#160;&#160;&#160;&#160;&#160;&#160;&#160;CONFIRMACION_EVENTO_ACADEMICO &#160;&#160;&#160;&#160;&#160;&#160;&#160;&#160;&#160;&#160;&#160;</text>
</g>
<!-- Notificacion&#45;&gt;TipoSituacion -->
<g id="edge5" class="edge">
<title>Notificacion&#45;&gt;TipoSituacion</title>
<path fill="none" stroke="#2c3e50" stroke-dasharray="5,2" d="M946.25,-973.04C946.25,-999.89 946.25,-1026.99 946.25,-1049.78"/>
<text text-anchor="middle" x="1080" y="-1009" font-family="Helvetica,sans-Serif" font-size="10.00">tipoSituacion</text>
</g>
<!-- NotificacionEmail -->
<g id="node2" class="node">
<title>NotificacionEmail</title>
<polygon fill="white" stroke="transparent" points="373,-507 373,-639 661,-639 661,-507 373,-507"/>
<polygon fill="#2980b9" stroke="transparent" points="373,-610 373,-639 661,-639 661,-610 373,-610"/>
<polygon fill="none" stroke="black" points="373,-610 373,-639 661,-639 661,-610 373,-610"/>
<text text-anchor="start" x="448.5" y="-621.8" font-family="Helvetica,sans-Serif" font-weight="bold" font-size="14.00" fill="white">NotificacionEmail</text>
<polygon fill="none" stroke="black" points="373,-551 373,-610 661,-610 661,-551 373,-551"/>
<text text-anchor="start" x="380" y="-591.8" font-family="Helvetica,sans-Serif" font-size="14.00"> &#160;&#160;&#160;&#160;&#160;&#160;&#160;&#160;&#160;&#160;&#160;&#160;&#160;&#160;&#160;&#45; asunto : String</text>
<text text-anchor="start" x="380" y="-576.8" font-family="Helvetica,sans-Serif" font-size="14.00"> &#160;&#160;&#160;&#160;&#160;&#160;&#160;&#160;&#160;&#160;&#160;&#160;&#160;&#160;&#160;&#45; correoDestinatario : String</text>
<text text-anchor="start" x="380" y="-561.8" font-family="Helvetica,sans-Serif" font-size="14.00"> &#160;&#160;&#160;&#160;&#160;&#160;&#160;&#160;&#160;&#160;&#160;&#160;&#160;&#160;&#160;&#45; copiaOculta : String &#160;&#160;&#160;&#160;&#160;&#160;&#160;&#160;&#160;&#160;&#160;</text>
<polygon fill="none" stroke="black" points="373,-507 373,-551 661,-551 661,-507 373,-507"/>
<text text-anchor="start" x="380" y="-532.8" font-family="Helvetica,sans-Serif" font-size="14.00"> &#160;&#160;&#160;&#160;&#160;&#160;&#160;&#160;&#160;&#160;&#160;&#160;&#160;&#160;&#160;+ enviar() : ResultadoEnvio</text>
<text text-anchor="start" x="380" y="-517.8" font-family="Helvetica,sans-Serif" font-size="14.00"> &#160;&#160;&#160;&#160;&#160;&#160;&#160;&#160;&#160;&#160;&#160;&#160;&#160;&#160;&#160;+ getMedio() : String &#160;&#160;&#160;&#160;&#160;&#160;&#160;&#160;&#160;&#160;&#160;</text>
</g>
<!-- NotificacionEmail&#45;&gt;Notificacion -->
<g id="edge1" class="edge">
<title>NotificacionEmail&#45;&gt;Notificacion</title>
<path fill="none" stroke="#2c3e50" d="M669.15,-640C688.52,-640 701.75,-640 701.75,-640 701.75,-640 701.75,-709.84 701.75,-709.84"/>
<polygon fill="none" stroke="#2c3e50" points="698.25,-709.84 701.75,-719.84 705.25,-709.84 698.25,-709.84"/>
<text text-anchor="middle" x="713" y="-679" font-family="Helvetica,sans-Serif" font-size="10.00">extends</text>
</g>
<!-- ResultadoEnvio -->
<g id="node7" class="node">
<title>ResultadoEnvio</title>
<polygon fill="white" stroke="transparent" points="291.5,-806.5 291.5,-886.5 640.5,-886.5 640.5,-806.5 291.5,-806.5"/>
<polygon fill="#27ae60" stroke="transparent" points="292,-861.5 292,-886.5 641,-886.5 641,-861.5 292,-861.5"/>
<polygon fill="none" stroke="black" points="292,-861.5 292,-886.5 641,-886.5 641,-861.5 292,-861.5"/>
<text text-anchor="start" x="405.5" y="-871.3" font-family="Helvetica,sans-Serif" font-weight="bold" font-size="14.00" fill="white">ResultadoEnvio</text>
<polygon fill="none" stroke="black" points="292,-806.5 292,-861.5 641,-861.5 641,-806.5 292,-806.5"/>
<text text-anchor="start" x="297" y="-845.3" font-family="Helvetica,sans-Serif" font-size="14.00"> &#160;&#160;&#160;&#160;&#160;&#160;&#160;&#160;&#160;&#160;&#160;&#160;&#160;&#160;&#160;&#45; exitoso : boolean</text>
<text text-anchor="start" x="297" y="-830.3" font-family="Helvetica,sans-Serif" font-size="14.00"> &#160;&#160;&#160;&#160;&#160;&#160;&#160;&#160;&#160;&#160;&#160;&#160;&#160;&#160;&#160;&#45; mensajeProveedor : String</text>
<text text-anchor="start" x="297" y="-815.3" font-family="Helvetica,sans-Serif" font-size="14.00"> &#160;&#160;&#160;&#160;&#160;&#160;&#160;&#160;&#160;&#160;&#160;&#160;&#160;&#160;&#160;&#45; fechaIntento : LocalDateTime &#160;&#160;&#160;&#160;&#160;&#160;&#160;&#160;&#160;&#160;&#160;</text>
</g>
<!-- NotificacionEmail&#45;&gt;ResultadoEnvio -->
<g id="edge6" class="edge">
<title>NotificacionEmail&#45;&gt;ResultadoEnvio</title>
<path fill="none" stroke="#2c3e50" stroke-dasharray="1,5" d="M506.75,-643.08C506.75,-643.08 506.75,-792.29 506.75,-792.29"/>
<polygon fill="#2c3e50" stroke="#2c3e50" points="506.75,-802.29 502.25,-792.29 506.75,-797.29 506.75,-792.29 506.75,-792.29 506.75,-792.29 506.75,-797.29 511.25,-792.29 506.75,-802.29 506.75,-802.29"/>
<text text-anchor="middle" x="492" y="-679" font-family="Helvetica,sans-Serif" font-size="10.00">retorna</text>
</g>
<!-- NotificacionSMS -->
<g id="node3" class="node">
<title>NotificacionSMS</title>
<polygon fill="white" stroke="transparent" points="720,-514.5 720,-631.5 1026,-631.5 1026,-514.5 720,-514.5"/>
<polygon fill="#16a085" stroke="transparent" points="720,-602 720,-631 1026,-631 1026,-602 720,-602"/>
<polygon fill="none" stroke="black" points="720,-602 720,-631 1026,-631 1026,-602 720,-602"/>
<text text-anchor="start" x="809" y="-613.8" font-family="Helvetica,sans-Serif" font-weight="bold" font-size="14.00" fill="white">NotificacionSMS</text>
<polygon fill="none" stroke="black" points="720,-558 720,-602 1026,-602 1026,-558 720,-558"/>
<text text-anchor="start" x="727" y="-583.8" font-family="Helvetica,sans-Serif" font-size="14.00"> &#160;&#160;&#160;&#160;&#160;&#160;&#160;&#160;&#160;&#160;&#160;&#160;&#160;&#160;&#160;&#45; numeroTelefono : String</text>
<text text-anchor="start" x="727" y="-568.8" font-family="Helvetica,sans-Serif" font-size="14.00"> &#160;&#160;&#160;&#160;&#160;&#160;&#160;&#160;&#160;&#160;&#160;&#160;&#160;&#160;&#160;&#45; proveedorSMS : String &#160;&#160;&#160;&#160;&#160;&#160;&#160;&#160;&#160;&#160;&#160;</text>
<polygon fill="none" stroke="black" points="720,-514 720,-558 1026,-558 1026,-514 720,-514"/>
<text text-anchor="start" x="727" y="-539.8" font-family="Helvetica,sans-Serif" font-size="14.00"> &#160;&#160;&#160;&#160;&#160;&#160;&#160;&#160;&#160;&#160;&#160;&#160;&#160;&#160;&#160;+ enviar() : ResultadoEnvio</text>
<text text-anchor="start" x="727" y="-524.8" font-family="Helvetica,sans-Serif" font-size="14.00"> &#160;&#160;&#160;&#160;&#160;&#160;&#160;&#160;&#160;&#160;&#160;&#160;&#160;&#160;&#160;+ getMedio() : String &#160;&#160;&#160;&#160;&#160;&#160;&#160;&#160;&#160;&#160;&#160;</text>
</g>
<!-- NotificacionSMS&#45;&gt;Notificacion -->
<g id="edge2" class="edge">
<title>NotificacionSMS&#45;&gt;Notificacion</title>
<path fill="none" stroke="#2c3e50" d="M873,-635.75C873,-635.75 873,-709.86 873,-709.86"/>
<polygon fill="none" stroke="#2c3e50" points="869.5,-709.86 873,-719.86 876.5,-709.86 869.5,-709.86"/>
<text text-anchor="middle" x="893" y="-679" font-family="Helvetica,sans-Serif" font-size="10.00">extends</text>
</g>
<!-- NotificacionSMS&#45;&gt;ResultadoEnvio -->
<g id="edge7" class="edge">
<title>NotificacionSMS&#45;&gt;ResultadoEnvio</title>
<path fill="none" stroke="#2c3e50" stroke-dasharray="1,5" d="M711.65,-573C692.87,-573 680.25,-573 680.25,-573 680.25,-573 680.25,-847 680.25,-847 680.25,-847 658.64,-847 658.64,-847"/>
<polygon fill="#2c3e50" stroke="#2c3e50" points="648.64,-847 658.64,-842.5 653.64,-847 658.64,-847 658.64,-847 658.64,-847 653.64,-847 658.64,-851.5 648.64,-847 648.64,-847"/>
<text text-anchor="middle" x="803" y="-679" font-family="Helvetica,sans-Serif" font-size="10.00">retorna</text>
</g>
<!-- NotificacionAppMovil -->
<g id="node4" class="node">
<title>NotificacionAppMovil</title>
<polygon fill="white" stroke="transparent" points="8,-507 8,-639 314,-639 314,-507 8,-507"/>
<polygon fill="#8e44ad" stroke="transparent" points="8,-610 8,-639 314,-639 314,-610 8,-610"/>
<polygon fill="none" stroke="black" points="8,-610 8,-639 314,-639 314,-610 8,-610"/>
<text text-anchor="start" x="78" y="-621.8" font-family="Helvetica,sans-Serif" font-weight="bold" font-size="14.00" fill="white">NotificacionAppMovil</text>
<polygon fill="none" stroke="black" points="8,-551 8,-610 314,-610 314,-551 8,-551"/>
<text text-anchor="start" x="15" y="-591.8" font-family="Helvetica,sans-Serif" font-size="14.00"> &#160;&#160;&#160;&#160;&#160;&#160;&#160;&#160;&#160;&#160;&#160;&#160;&#160;&#160;&#160;&#45; tokenDispositivo : String</text>
<text text-anchor="start" x="15" y="-576.8" font-family="Helvetica,sans-Serif" font-size="14.00"> &#160;&#160;&#160;&#160;&#160;&#160;&#160;&#160;&#160;&#160;&#160;&#160;&#160;&#160;&#160;&#45; prioridad : String</text>
<text text-anchor="start" x="15" y="-561.8" font-family="Helvetica,sans-Serif" font-size="14.00"> &#160;&#160;&#160;&#160;&#160;&#160;&#160;&#160;&#160;&#160;&#160;&#160;&#160;&#160;&#160;&#45; sonidoAlerta : boolean &#160;&#160;&#160;&#160;&#160;&#160;&#160;&#160;&#160;&#160;&#160;</text>
<polygon fill="none" stroke="black" points="8,-507 8,-551 314,-551 314,-507 8,-507"/>
<text text-anchor="start" x="15" y="-532.8" font-family="Helvetica,sans-Serif" font-size="14.00"> &#160;&#160;&#160;&#160;&#160;&#160;&#160;&#160;&#160;&#160;&#160;&#160;&#160;&#160;&#160;+ enviar() : ResultadoEnvio</text>
<text text-anchor="start" x="15" y="-517.8" font-family="Helvetica,sans-Serif" font-size="14.00"> &#160;&#160;&#160;&#160;&#160;&#160;&#160;&#160;&#160;&#160;&#160;&#160;&#160;&#160;&#160;+ getMedio() : String &#160;&#160;&#160;&#160;&#160;&#160;&#160;&#160;&#160;&#160;&#160;</text>
</g>
<!-- NotificacionAppMovil&#45;&gt;Notificacion -->
<g id="edge3" class="edge">
<title>NotificacionAppMovil&#45;&gt;Notificacion</title>
<path fill="none" stroke="#2c3e50" d="M309.17,-643.11C309.17,-696.9 309.17,-762 309.17,-762 309.17,-762 681.5,-762 681.5,-762"/>
<polygon fill="none" stroke="#2c3e50" points="681.5,-765.5 691.5,-762 681.5,-758.5 681.5,-765.5"/>
<text text-anchor="middle" x="609" y="-679" font-family="Helvetica,sans-Serif" font-size="10.00">extends</text>
</g>
<!-- NotificacionAppMovil&#45;&gt;ResultadoEnvio -->
<g id="edge8" class="edge">
<title>NotificacionAppMovil&#45;&gt;ResultadoEnvio</title>
<path fill="none" stroke="#2c3e50" stroke-dasharray="1,5" d="M296.33,-643.08C296.33,-643.08 296.33,-792.29 296.33,-792.29"/>
<polygon fill="#2c3e50" stroke="#2c3e50" points="296.33,-802.29 291.83,-792.29 296.33,-797.29 296.33,-792.29 296.33,-792.29 296.33,-792.29 296.33,-797.29 300.83,-792.29 296.33,-802.29 296.33,-802.29"/>
<text text-anchor="middle" x="298" y="-679" font-family="Helvetica,sans-Serif" font-size="10.00">retorna</text>
</g>
<!-- NotificacionController -->
<g id="node8" class="node">
<title>NotificacionController</title>
<polygon fill="white" stroke="transparent" points="1102,-46 1102,-184 1368,-184 1368,-46 1102,-46"/>
<polygon fill="#c0392b" stroke="transparent" points="1102,-146 1102,-184 1368,-184 1368,-146 1102,-146"/>
<polygon fill="none" stroke="black" points="1102,-146 1102,-184 1368,-184 1368,-146 1102,-146"/>
<text text-anchor="start" x="1161.5" y="-168.8" font-family="Helvetica,sans-Serif" font-weight="bold" font-size="14.00" fill="white">«@RestController»</text>
<text text-anchor="start" x="1148.5" y="-154.8" font-family="Helvetica,sans-Serif" font-weight="bold" font-size="14.00" fill="white">NotificacionController</text>
<polygon fill="none" stroke="black" points="1102,-46 1102,-146 1368,-146 1368,-46 1102,-46"/>
<text text-anchor="start" x="1107" y="-129.8" font-family="Helvetica,sans-Serif" font-size="14.00"> &#160;&#160;&#160;&#160;&#160;&#160;&#160;&#160;&#160;&#160;&#160;&#160;&#160;&#160;&#160;&#160;&#160;&#160;&#160;+ crearEmail(req)</text>
<text text-anchor="start" x="1107" y="-114.8" font-family="Helvetica,sans-Serif" font-size="14.00"> &#160;&#160;&#160;&#160;&#160;&#160;&#160;&#160;&#160;&#160;&#160;&#160;&#160;&#160;&#160;&#160;&#160;&#160;&#160;+ crearSMS(req)</text>
<text text-anchor="start" x="1107" y="-99.8" font-family="Helvetica,sans-Serif" font-size="14.00"> &#160;&#160;&#160;&#160;&#160;&#160;&#160;&#160;&#160;&#160;&#160;&#160;&#160;&#160;&#160;&#160;&#160;&#160;&#160;+ crearAppMovil(req)</text>
<text text-anchor="start" x="1107" y="-84.8" font-family="Helvetica,sans-Serif" font-size="14.00"> &#160;&#160;&#160;&#160;&#160;&#160;&#160;&#160;&#160;&#160;&#160;&#160;&#160;&#160;&#160;&#160;&#160;&#160;&#160;+ enviar(id)</text>
<text text-anchor="start" x="1107" y="-69.8" font-family="Helvetica,sans-Serif" font-size="14.00"> &#160;&#160;&#160;&#160;&#160;&#160;&#160;&#160;&#160;&#160;&#160;&#160;&#160;&#160;&#160;&#160;&#160;&#160;&#160;+ listar()</text>
<text text-anchor="start" x="1107" y="-54.8" font-family="Helvetica,sans-Serif" font-size="14.00"> &#160;&#160;&#160;&#160;&#160;&#160;&#160;&#160;&#160;&#160;&#160;&#160;&#160;&#160;&#160;&#160;&#160;&#160;&#160;+ obtener(id) &#160;&#160;&#160;&#160;&#160;&#160;&#160;&#160;&#160;&#160;&#160;&#160;&#160;&#160;&#160;</text>
</g>
<!-- NotificacionService -->
<g id="node9" class="node">
<title>NotificacionService</title>
<polygon fill="white" stroke="transparent" points="1102,-269 1102,-422 1368,-422 1368,-269 1102,-269"/>
<polygon fill="#d35400" stroke="transparent" points="1102,-383.5 1102,-421.5 1368,-421.5 1368,-383.5 1102,-383.5"/>
<polygon fill="none" stroke="black" points="1102,-383.5 1102,-421.5 1368,-421.5 1368,-383.5 1102,-383.5"/>
<text text-anchor="start" x="1189.5" y="-406.3" font-family="Helvetica,sans-Serif" font-weight="bold" font-size="14.00" fill="white">«@Service»</text>
<text text-anchor="start" x="1159" y="-392.3" font-family="Helvetica,sans-Serif" font-weight="bold" font-size="14.00" fill="white">NotificacionService</text>
<polygon fill="none" stroke="black" points="1102,-268.5 1102,-383.5 1368,-383.5 1368,-268.5 1102,-268.5"/>
<text text-anchor="start" x="1107" y="-367.3" font-family="Helvetica,sans-Serif" font-size="14.00"> &#160;&#160;&#160;&#160;&#160;&#160;&#160;&#160;&#160;&#160;&#160;&#160;&#160;&#160;&#160;&#160;&#160;&#160;&#160;&#45; repository</text>
<text text-anchor="start" x="1107" y="-352.3" font-family="Helvetica,sans-Serif" font-size="14.00"> &#160;&#160;&#160;&#160;&#160;&#160;&#160;&#160;&#160;&#160;&#160;&#160;&#160;&#160;&#160;&#160;&#160;&#160;&#160;+ crearEmail(req)</text>
<text text-anchor="start" x="1107" y="-337.3" font-family="Helvetica,sans-Serif" font-size="14.00"> &#160;&#160;&#160;&#160;&#160;&#160;&#160;&#160;&#160;&#160;&#160;&#160;&#160;&#160;&#160;&#160;&#160;&#160;&#160;+ crearSMS(req)</text>
<text text-anchor="start" x="1107" y="-322.3" font-family="Helvetica,sans-Serif" font-size="14.00"> &#160;&#160;&#160;&#160;&#160;&#160;&#160;&#160;&#160;&#160;&#160;&#160;&#160;&#160;&#160;&#160;&#160;&#160;&#160;+ crearAppMovil(req)</text>
<text text-anchor="start" x="1107" y="-307.3" font-family="Helvetica,sans-Serif" font-size="14.00"> &#160;&#160;&#160;&#160;&#160;&#160;&#160;&#160;&#160;&#160;&#160;&#160;&#160;&#160;&#160;&#160;&#160;&#160;&#160;+ enviar(id)</text>
<text text-anchor="start" x="1107" y="-292.3" font-family="Helvetica,sans-Serif" font-size="14.00"> &#160;&#160;&#160;&#160;&#160;&#160;&#160;&#160;&#160;&#160;&#160;&#160;&#160;&#160;&#160;&#160;&#160;&#160;&#160;+ listar()</text>
<text text-anchor="start" x="1107" y="-277.3" font-family="Helvetica,sans-Serif" font-size="14.00"> &#160;&#160;&#160;&#160;&#160;&#160;&#160;&#160;&#160;&#160;&#160;&#160;&#160;&#160;&#160;&#160;&#160;&#160;&#160;+ obtener(id) &#160;&#160;&#160;&#160;&#160;&#160;&#160;&#160;&#160;&#160;&#160;&#160;&#160;&#160;&#160;</text>
</g>
<!-- NotificacionController&#45;&gt;NotificacionService -->
<g id="edge9" class="edge">
<title>NotificacionController&#45;&gt;NotificacionService</title>
<path fill="none" stroke="#2c3e50" d="M1235,-188.25C1235,-188.25 1235,-254.85 1235,-254.85"/>
<polygon fill="#2c3e50" stroke="#2c3e50" points="1235,-264.85 1230.5,-254.85 1235,-259.85 1235,-254.85 1235,-254.85 1235,-254.85 1235,-259.85 1239.5,-254.85 1235,-264.85 1235,-264.85"/>
<text text-anchor="middle" x="1244" y="-224" font-family="Helvetica,sans-Serif" font-size="10.00">usa</text>
</g>
<!-- NotificacionRepository -->
<g id="node10" class="node">
<title>NotificacionRepository</title>
<polygon fill="white" stroke="transparent" points="1085,-519 1085,-627 1385,-627 1385,-519 1085,-519"/>
<polygon fill="#2c3e50" stroke="transparent" points="1085,-589 1085,-627 1385,-627 1385,-589 1085,-589"/>
<polygon fill="none" stroke="black" points="1085,-589 1085,-627 1385,-627 1385,-589 1085,-589"/>
<text text-anchor="start" x="1170.5" y="-611.8" font-family="Helvetica,sans-Serif" font-weight="bold" font-size="14.00" fill="white">«interface · JPA»</text>
<text text-anchor="start" x="1145.5" y="-597.8" font-family="Helvetica,sans-Serif" font-weight="bold" font-size="14.00" fill="white">NotificacionRepository</text>
<polygon fill="none" stroke="black" points="1085,-519 1085,-589 1385,-589 1385,-519 1085,-519"/>
<text text-anchor="start" x="1090" y="-572.8" font-family="Helvetica,sans-Serif" font-size="14.00"> &#160;&#160;&#160;&#160;&#160;&#160;&#160;&#160;&#160;&#160;&#160;&#160;&#160;&#160;&#160;&#160;&#160;&#160;&#160;+ save(n)</text>
<text text-anchor="start" x="1090" y="-557.8" font-family="Helvetica,sans-Serif" font-size="14.00"> &#160;&#160;&#160;&#160;&#160;&#160;&#160;&#160;&#160;&#160;&#160;&#160;&#160;&#160;&#160;&#160;&#160;&#160;&#160;+ findById(id)</text>
<text text-anchor="start" x="1090" y="-542.8" font-family="Helvetica,sans-Serif" font-size="14.00"> &#160;&#160;&#160;&#160;&#160;&#160;&#160;&#160;&#160;&#160;&#160;&#160;&#160;&#160;&#160;&#160;&#160;&#160;&#160;+ findAll()</text>
<text text-anchor="start" x="1090" y="-527.8" font-family="Helvetica,sans-Serif" font-size="14.00"> &#160;&#160;&#160;&#160;&#160;&#160;&#160;&#160;&#160;&#160;&#160;&#160;&#160;&#160;&#160;&#160;&#160;&#160;&#160;+ findByEstado(e) &#160;&#160;&#160;&#160;&#160;&#160;&#160;&#160;&#160;&#160;&#160;&#160;&#160;&#160;&#160;</text>
</g>
<!-- NotificacionService&#45;&gt;NotificacionRepository -->
<g id="edge10" class="edge">
<title>NotificacionService&#45;&gt;NotificacionRepository</title>
<path fill="none" stroke="#2c3e50" d="M1235,-426.03C1235,-426.03 1235,-504.76 1235,-504.76"/>
<polygon fill="#2c3e50" stroke="#2c3e50" points="1235,-514.76 1230.5,-504.76 1235,-509.76 1235,-504.76 1235,-504.76 1235,-504.76 1235,-509.76 1239.5,-504.76 1235,-514.76 1235,-514.76"/>
<text text-anchor="middle" x="1244" y="-462" font-family="Helvetica,sans-Serif" font-size="10.00">usa</text>
</g>
<!-- NotificacionRepository&#45;&gt;Notificacion -->
<g id="edge11" class="edge">
<title>NotificacionRepository&#45;&gt;Notificacion</title>
<path fill="none" stroke="#2c3e50" stroke-dasharray="1,5" d="M1076.61,-573C1057.32,-573 1044.25,-573 1044.25,-573 1044.25,-573 1044.25,-709.76 1044.25,-709.76"/>
<polygon fill="#2c3e50" stroke="#2c3e50" points="1044.25,-719.76 1039.75,-709.76 1044.25,-714.76 1044.25,-709.76 1044.25,-709.76 1044.25,-709.76 1044.25,-714.76 1048.75,-709.76 1044.25,-719.76 1044.25,-719.76"/>
<text text-anchor="middle" x="1118" y="-679" font-family="Helvetica,sans-Serif" font-size="10.00">persiste</text>
</g>
</g>
</svg>
